<?xml version="1.0" encoding="utf-8"?>
<svg xmlns="http://www.w3.org/2000/svg" width="64" height="64" fill="none" viewBox="0 0 64 64">
    <style type="text/css">
        #svg1,
        #svg2,
        #svg3 {
            opacity: 0;
            animation-duration: 9s;
            animation-iteration-count: infinite;
            animation-timing-function: step-start;
        }
        #svg1 {
            animation-name: showSvg1;
        }
        #svg2 {
            animation-name: showSvg2;
        }  
        #svg3 {
            animation-name: showSvg3;
        }

        @keyframes showSvg1 {
            0%, 33.33% { opacity: 1; }
            33.34%, 100% { opacity: 0; }
        }
        @keyframes showSvg2 {
            33.34%, 66.66% { opacity: 1; }
            0%, 33.33%, 66.67%, 100% { opacity: 0; }
        }
        @keyframes showSvg3 {
            66.67%, 100% { opacity: 1; }
            0%, 66.66% { opacity: 0; }
        }
    </style>

    <svg id="svg1" xmlns="http://www.w3.org/2000/svg" width="64" height="64" fill="none" viewBox="0 0 64 64">
    <defs>
        <linearGradient id="a" x1="-.717383" x2="24.1455" y1="7.61946" y2="61.2456" gradientUnits="userSpaceOnUse">
        <stop offset=".1" stop-color="#FC801D"/>
        <stop offset=".59" stop-color="#FE2857"/>
        </linearGradient>
        <linearGradient id="b" x1="4.22243" x2="62.9273" y1="60.0186" y2="1.31316" gradientUnits="userSpaceOnUse">
        <stop offset=".21" stop-color="#FE2857"/>
        <stop offset=".7" stop-color="#007EFF"/>
        </linearGradient>
    </defs>
    <path fill="#FF8100" d="m15.9476 5.81641-11.87545.00174C1.82284 5.81815 0 7.64157 0 9.89088V21.3975c0 1.1887.519564 2.3185 1.42196 3.0924L39.5828 57.1997c.7384.6324 1.6786.9803 2.6508.9803h11.8755c2.2493 0 4.0727-1.8234 4.0727-4.0727V42.599c0-1.1887-.5195-2.3186-1.4219-3.0924L18.599 6.79735c-.7383-.63302-1.6786-.98036-2.6514-.98036v-.00058Z"/>
    <path fill="url(#a)" d="M14.5193 5.81641H4.07273C1.82342 5.81641 0 7.63982 0 9.88913V22.9818c0 .1926.013964.3852.040727.576L5.31782 60.5015c.28683 2.0067 2.00494 3.4967 4.032 3.4967H25.0228c2.2499 0 4.0733-1.824 4.0728-4.0739l-.0047-18.5384c0-.4376-.0704-.8722-.2089-1.287L18.3825 8.60099c-.5544-1.66284-2.1108-2.78458-3.8638-2.78458h.0006Z"/>
    <path fill="url(#b)" d="M59.9275 0H25.9592c-1.6291 0-3.1017.971054-3.7435 2.46807L6.14767 39.9587c-.21702.5068-.32931 1.0531-.32931 1.6046v18.364C5.81836 62.1766 7.64178 64 9.89109 64H27.8571c.8046 0 1.5912-.2385 2.2609-.6854l32.0687-21.4033c1.1322-.7552 1.8117-2.0265 1.8117-3.3874l.0018-34.45117C64.0002 1.82342 62.1768 0 59.9275 0Z"/>
    <path fill="#000" d="M52 12H12v40h40V12Z"/>
    <path fill="#fff" d="M17 29.3856h2.9788v-9.7712H17V17h8.839v2.6144h-2.9788v9.7712h2.9788V32H17v-2.6144Z"/>
    <path fill="#fff" d="M27.3389 29.3002h2.1538c.4354 0 .8233-.0928 1.1625-.2784.3392-.1857.6016-.4481.7872-.7873.1857-.3392.2785-.7265.2785-1.1625V17h2.9249v10.2748c0 .9001-.2074 1.7092-.6216 2.4271-.4143.7179-.9855 1.2805-1.7143 1.6873-.7288.4074-1.5464.6108-2.4534.6108h-2.5176v-2.6998Z"/>
    <path fill="#fff" d="M17 44h16v3H17v-3Z"/>
    </svg>

    <svg id="svg2" xmlns="http://www.w3.org/2000/svg" width="64" height="64" fill="none" viewBox="0 0 64 64">
    <defs>
        <linearGradient id="a" x1="59.7777" x2="1.07287" y1="3.98196" y2="62.6868" gradientUnits="userSpaceOnUse">
        <stop offset=".28" stop-color="#7256FF"/>
        <stop offset=".66" stop-color="#00D980"/>
        </linearGradient>
        <linearGradient id="b" x1="64.7178" x2="39.4774" y1="56.3788" y2="1.93862" gradientUnits="userSpaceOnUse">
        <stop offset=".3" stop-color="#FF43F2"/>
        <stop offset=".54" stop-color="#7256FF"/>
        </linearGradient>
    </defs>
    <path fill="url(#a)" d="M4.07273 64H38.041c1.6291 0 3.1017-.9711 3.7434-2.4681l16.0681-37.4906c.217-.5068.3293-1.0531.3293-1.6046V4.07273C58.1818 1.82342 56.3584 0 54.1091 0h-17.966c-.8046 0-1.5912.238545-2.2609.685382L1.81353 22.0881C.681309 22.8439.001745 24.1146.001745 25.4755L0 59.9273C0 62.1766 1.82342 64 4.07273 64Z"/>
    <path fill="url(#b)" d="M49.4812 58.1818h10.4465c2.2493 0 4.0727-1.8234 4.0727-4.0727V41.0164c0-.1925-.0139-.3851-.0407-.576L58.682 3.49673C58.3952 1.49004 56.6771 0 54.65 0H38.977c-2.2499 0-4.0733 1.824-4.0727 4.07389l.0047 18.53851c0 .4375.0704.8721.2088 1.2869l10.4995 31.4979c.5545 1.6629 2.1109 2.7846 3.8639 2.7846Z"/>
    <path fill="#FF43F2" d="m48.0521 58.18 11.8755-.0017c2.2493 0 4.0722-1.8234 4.0722-4.0727V42.599c0-1.1887-.5196-2.3186-1.422-3.0924L24.4164 6.79677c-.7384-.63244-1.6786-.98036-2.6508-.98036H9.89011c-2.24931 0-4.07273 1.82341-4.07273 4.07272V21.3975c0 1.1887.51957 2.3185 1.42197 3.0924L45.4002 57.1991c.7383.633 1.6786.9804 2.6514.9804l.0005.0005Z"/>
    <path fill="#000" d="M52 12H12v40h40V12Z"/>
    <path fill="#fff" fill-rule="evenodd" d="M22.751 17.3641h-5.7569v15.1222h5.7569c1.4327 0 2.7144-.3241 3.8451-.9721 1.1376-.6481 2.027-1.5444 2.6681-2.6896.6405-1.152.9611-2.4522.9611-3.8994s-.3206-2.7433-.9611-3.8885c-.6411-1.152-1.5305-2.0524-2.6681-2.7005-1.1307-.648-2.4124-.9721-3.8451-.9721Zm2.3331 11.968c-.677.4033-1.4651.6047-2.3655.6047l-2.7757.0006V19.9136h2.7757c.8998 0 1.6885.2008 2.3655.6047.677.4033 1.1989.9825 1.5664 1.7388.3674.7493.5508 1.6381.5508 2.6681s-.1834 1.9222-.5508 2.6785c-.3675.7494-.8894 1.3245-1.5664 1.7284Z" clip-rule="evenodd"/>
    <path fill="#fff" d="M35.3272 31.73c1.174.6764 2.4846 1.0155 3.9318 1.0155 1.3899 0 2.6427-.3096 3.7589-.9293 1.1231-.6197 2.0055-1.4651 2.6461-2.5385.6481-1.0797.9721-2.2856.9721-3.6182v-1.188h-6.405v2.3221h3.5161c-.0722.5605-.2757 1.0719-.6107 1.534-.3958.5468-.9322.9762-1.6092 1.2852-.6701.3095-1.4188.4646-2.2469.4646-.8928 0-1.6989-.2228-2.4193-.6695-.7204-.4467-1.2857-1.0583-1.696-1.836-.4027-.7841-.6046-1.6671-.6046-2.6461 0-.9791.2013-1.858.6046-2.6357.4109-.7847.9762-1.4003 1.696-1.847.7199-.4467 1.5265-.6695 2.4193-.6695.6053 0 1.1706.0972 1.696.2916.526.1875.9831.4577 1.372.8101.3963.3455.7094.7563.9397 1.2313h3.1541c-.2736-.9865-.7528-1.8574-1.4367-2.6137-.677-.7562-1.5126-1.3436-2.5061-1.7608-.9866-.4172-2.0663-.6266-3.2404-.6266-1.4477 0-2.7578.3414-3.9318 1.0259-1.1741.6764-2.0959 1.6132-2.7653 2.8081-.6695 1.188-1.0046 2.5165-1.0046 3.9857 0 1.4692.3351 2.8018 1.0046 3.9967.67 1.1879 1.5918 2.1236 2.7653 2.8081Z"/>
    <path fill="#fff" d="M16.9941 43.9998h16v3h-16v-3Z"/>
    </svg>

    <svg id="svg3" xmlns="http://www.w3.org/2000/svg" width="64" height="64" fill="none" viewBox="0 0 64 64">
    <defs>
        <linearGradient id="a" x1="7.62141" x2="61.2476" y1="64.7192" y2="39.8564" gradientUnits="userSpaceOnUse">
        <stop offset=".22" stop-color="#F0EB18"/>
        <stop offset=".59" stop-color="#00C4F4"/>
        </linearGradient>
        <linearGradient id="b" x1="60.0186" x2="1.31316" y1="59.7777" y2="1.07287" gradientUnits="userSpaceOnUse">
        <stop offset=".19" stop-color="#00C4F4"/>
        <stop offset=".83" stop-color="#007DFE"/>
        </linearGradient>
    </defs>
    <path fill="#F0EB18" d="m5.81836 48.0512.00174 11.8755c0 2.2493 1.82342 4.0721 4.07273 4.0721H21.3994c1.1887 0 2.3186-.5196 3.0924-1.422l32.7098-38.1614c.6325-.7383.9804-1.6786.9804-2.6508V9.88913c0-2.24931-1.8234-4.07272-4.0727-4.07272H42.6009c-1.1887 0-2.3185.51956-3.0924 1.42196L6.79872 45.3998c-.63302.7383-.98036 1.6786-.98036 2.6514Z"/>
    <path fill="url(#a)" d="M5.81836 49.4825v10.4466c0 2.2493 1.82342 4.0727 4.07273 4.0727H22.9837c.1926 0 .3852-.014.576-.0407l36.9437-5.2771c2.0067-.2868 3.4968-2.005 3.4968-4.032V38.979c0-2.2499-1.824-4.0733-4.0739-4.0727l-18.5385.0046c-.4375 0-.8721.0704-1.287.2089L8.60294 45.6193c-1.66284.5544-2.78458 2.1108-2.78458 3.8638v-.0006Z"/>
    <path fill="url(#b)" d="M0 4.07273V38.041c0 1.6291.971054 3.1017 2.46807 3.7434L39.9587 57.8525c.5067.217 1.0531.3293 1.6046.3293h18.364c2.2493 0 4.0727-1.8234 4.0727-4.0727v-17.966c0-.8046-.2386-1.5913-.6854-2.2609L41.9113 1.81353C41.1561.681309 39.8854.001745 38.5239.001745L4.07273 0C1.82342 0 0 1.82342 0 4.07273Z"/>
    <path fill="#000" d="M52 12H12v40h40V12Z"/>
    <path fill="#fff" d="m21.2377 27.961-2.4224-10.9532h-3.0321l3.6224 15.0044h3.3226l2.5613-10.8998 2.5292 10.8998h3.333l3.6441-15.0044h-2.9689L29.4797 27.961l-2.7008-10.9532h-2.9581L21.2377 27.961Z"/>
    <path fill="#fff" d="M38.2224 31.6804c.8429.3927 1.8074.5896 2.8937.5896s2.0515-.1998 2.8944-.6005c.8428-.4008 1.4968-.9503 1.9613-1.6507.4714-.7074.7073-1.5049.7073-2.3903 0-.7222-.1607-1.3865-.4822-1.9934-.3216-.6149-.7717-1.1294-1.3505-1.5434-.5718-.422-1.2252-.7073-1.9613-.8572l-2.551-.5575c-.4644-.1137-.8325-.3066-1.1041-.5787-.2646-.2722-.3967-.615-.3967-1.0289 0-.364.0965-.6815.2894-.9537.1929-.2785.461-.4932.8038-.643.3497-.1568.7539-.236 1.2109-.236.457 0 .8607.0815 1.2109.2463.3571.1567.6321.3818.8251.6752.1929.2854.2893.6109.2893.9755h2.9259c-.0074-.8572-.236-1.614-.6861-2.272-.4432-.6648-1.0645-1.1833-1.8649-1.5542-.8003-.3715-1.7253-.5575-2.7329-.5575-1.0077 0-1.908.1929-2.7009.5788-.7929.3789-1.4107.9106-1.8539 1.5967-.4427.6792-.6643 1.4469-.6643 2.3041 0 .7073.1464 1.3441.4392 1.9079.2934.5644.7039 1.0398 1.2327 1.4256.5288.379 1.1506.6471 1.8649.8038l2.6474.5897c.5076.1223.9037.3393 1.1897.654.2928.3146.4392.7113.4392 1.1896 0 .3859-.1074.7286-.3215 1.0289-.2073.3003-.5036.5357-.8894.7074-.3789.1648-.8004.2463-1.3292.2463-.5288 0-.9967-.0925-1.4038-.2785-.4071-.186-.7251-.4432-.9537-.7716-.2285-.3279-.3427-.7114-.3427-1.1466h-2.9368c.0143.9215.2572 1.7362.7286 2.4436.4788.7073 1.1362 1.2579 1.9722 1.6507Z"/>
    <path fill="#fff" d="M16.9932 44h16v3h-16v-3Z"/>
    </svg>





</svg>