<?xml version="1.0" encoding="utf-8"?>
<svg version="1.1" id="Layer_1" xmlns="http://www.w3.org/2000/svg" xmlns:xlink="http://www.w3.org/1999/xlink"
    viewBox="0 0 800 800">
    <style type="text/css">
        #Mybatis,
        #MybatisPlus,
        #MybatisMapper {
            opacity: 0;
            animation-duration: 9s;
            animation-iteration-count: infinite;
            animation-timing-function: step-start;
        }

        #Mybatis {
            animation-name: showMybatis;
        }

        #MybatisPlus {
            animation-name: showMybatisPlus;
        }  
        #MybatisMapper {
            animation-name: showMybatisMapper;
        }

        @keyframes showMybatis {
            0%, 33.33% { opacity: 1; }
            33.34%, 100% { opacity: 0; }
        }
        @keyframes showMybatisPlus {
            33.34%, 66.66% { opacity: 1; }
            0%, 33.33%, 66.67%, 100% { opacity: 0; }
        }
        @keyframes showMybatisMapper {
            66.67%, 100% { opacity: 1; }
            0%, 66.66% { opacity: 0; }
        }
    </style>

    <svg xmlns:dc="http://purl.org/dc/elements/1.1/" xmlns:cc="http://creativecommons.org/ns#"
        xmlns:rdf="http://www.w3.org/1999/02/22-rdf-syntax-ns#" xmlns:svg="http://www.w3.org/2000/svg"
        xmlns="http://www.w3.org/2000/svg" xmlns:xlink="http://www.w3.org/1999/xlink"
        xmlns:sodipodi="http://sodipodi.sourceforge.net/DTD/sodipodi-0.dtd"
        xmlns:inkscape="http://www.inkscape.org/namespaces/inkscape" width="800" height="800" id="svg2"
        sodipodi:version="0.32" inkscape:version="0.48.3.1 r9886" sodipodi:docname="logo-bird-ninja.svg" version="1.0"
        inkscape:export-filename="/home/eduardo/workspace/logo/logo-bird-ninja.png" inkscape:export-xdpi="349.90942"
        inkscape:export-ydpi="349.90942">
        <g id="Mybatis">
            <defs id="defs4">
                <inkscape:path-effect effect="envelope" id="path-effect3082" is_visible="true" yy="true" xx="true"
                    bendpath1="m 278.07452,147.27768 414.18437,0" bendpath2="m 692.25889,147.27768 0,297.81428"
                    bendpath3="m 278.07452,445.09196 414.18437,0" bendpath4="m 278.07452,147.27768 0,297.81428" />
                <inkscape:path-effect effect="curvestitching" id="path-effect3076" is_visible="true" count="5"
                    startpoint_edge_variation="0;1" startpoint_spacing_variation="0;1" endpoint_edge_variation="0;1"
                    endpoint_spacing_variation="0;1" strokepath="m 278.07452,296.18482 414.18437,0" prop_scale="1"
                    scale_y_rel="false" />
                <inkscape:path-effect effect="curvestitching" id="path-effect3074" is_visible="true" count="5"
                    startpoint_edge_variation="0;1" startpoint_spacing_variation="0;1" endpoint_edge_variation="0;1"
                    endpoint_spacing_variation="0;1" strokepath="m 278.07452,296.18482 414.18437,0" prop_scale="1"
                    scale_y_rel="false" />
                <inkscape:perspective sodipodi:type="inkscape:persp3d" inkscape:vp_x="0 : 382.5 : 1"
                    inkscape:vp_y="0 : 1000 : 0" inkscape:vp_z="990 : 382.5 : 1" inkscape:persp3d-origin="495 : 255 : 1"
                    id="perspective31" />
                <linearGradient id="linearGradient3038">
                    <stop style="stop-color:#000000;stop-opacity:1;" offset="0" id="stop3040" />
                    <stop style="stop-color:#6d5656;stop-opacity:1;" offset="1" id="stop3042" />
                </linearGradient>
                <linearGradient id="linearGradient3038-2">
                    <stop style="stop-color:#6ad427;stop-opacity:1;" offset="0" id="stop3040-7" />
                    <stop style="stop-color:#fff8cb;stop-opacity:1;" offset="1" id="stop3042-0" />
                </linearGradient>
                <filter id="filter3032" inkscape:label="Drop shadow" width="1.5" height="1.5" x="-0.25" y="-0.25"
                    color-interpolation-filters="sRGB">
                    <feGaussianBlur id="feGaussianBlur3034" in="SourceAlpha" stdDeviation="2" result="blur" />
                    <feColorMatrix id="feColorMatrix3036" result="bluralpha" type="matrix"
                        values="1 0 0 0 0 0 1 0 0 0 0 0 1 0 0 0 0 0 0.5 0 " />
                    <feOffset id="feOffset3038" in="bluralpha" dx="4" dy="4" result="offsetBlur" />
                    <feMerge id="feMerge3040">
                        <feMergeNode id="feMergeNode3042" in="offsetBlur" />
                        <feMergeNode id="feMergeNode3044" in="SourceGraphic" />
                    </feMerge>
                </filter>
                <filter id="filter3937" inkscape:label="Drop shadow" width="1.5" height="1.5" x="-0.25" y="-0.25"
                    color-interpolation-filters="sRGB">
                    <feGaussianBlur id="feGaussianBlur3939" in="SourceAlpha" stdDeviation="2" result="blur" />
                    <feColorMatrix id="feColorMatrix3941" result="bluralpha" type="matrix"
                        values="1 0 0 0 0 0 1 0 0 0 0 0 1 0 0 0 0 0 0.5 0 " />
                    <feOffset id="feOffset3943" in="bluralpha" dx="4" dy="4" result="offsetBlur" />
                    <feMerge id="feMerge3945">
                        <feMergeNode id="feMergeNode3947" in="offsetBlur" />
                        <feMergeNode id="feMergeNode3949" in="SourceGraphic" />
                    </feMerge>
                </filter>
                <linearGradient inkscape:collect="always" xlink:href="#linearGradient3038" id="linearGradient3033"
                    gradientUnits="userSpaceOnUse" x1="394.50836" y1="383.22546" x2="818.97211" y2="107.68693" />
                <linearGradient inkscape:collect="always" xlink:href="#linearGradient3038" id="linearGradient3044"
                    gradientUnits="userSpaceOnUse" x1="379.49185" y1="251.36469" x2="557.75946" y2="251.36469" />
                <linearGradient inkscape:collect="always" xlink:href="#linearGradient3038" id="linearGradient3046"
                    gradientUnits="userSpaceOnUse"
                    gradientTransform="matrix(0.99877071,-0.04956883,0.04956883,0.99877071,-33.680056,25.281683)"
                    x1="394.50836" y1="383.22546" x2="818.97211" y2="107.68693" />
                <linearGradient inkscape:collect="always" xlink:href="#linearGradient3038" id="linearGradient3048"
                    gradientUnits="userSpaceOnUse" x1="358.33331" y1="284.44446" x2="504.16666" y2="227.5" />
                <filter id="filter3027" style="color-interpolation-filters:sRGB;" inkscape:label="Drop Shadow">
                    <feFlood id="feFlood3029" flood-opacity="0.5" flood-color="rgb(0,0,0)" result="flood" />
                    <feComposite id="feComposite3031" in2="SourceGraphic" in="flood" operator="in"
                        result="composite1" />
                    <feGaussianBlur id="feGaussianBlur3033" in="composite" stdDeviation="2" result="blur" />
                    <feOffset id="feOffset3035" dx="4" dy="4" result="offset" />
                    <feComposite id="feComposite3037" in2="offset" in="SourceGraphic" operator="over"
                        result="composite2" />
                </filter>
            </defs>
            <sodipodi:namedview id="base" pagecolor="#ffffff" bordercolor="#666666" borderopacity="1.0"
                inkscape:pageopacity="1" inkscape:pageshadow="2" inkscape:zoom="0.72" inkscape:cx="494.34641"
                inkscape:cy="340.87975" inkscape:document-units="px" inkscape:current-layer="layer1"
                inkscape:window-width="1280" inkscape:window-height="776" inkscape:window-x="0" inkscape:window-y="24"
                showgrid="false" inkscape:window-maximized="1" inkscape:object-nodes="true" inkscape:object-paths="true"
                inkscape:snap-intersection-paths="false" inkscape:snap-smooth-nodes="false"
                inkscape:snap-nodes="false" />
            <metadata id="metadata7">
                <rdf:RDF>
                    <cc:Work rdf:about="">
                        <dc:format>image/svg+xml</dc:format>
                        <dc:type rdf:resource="http://purl.org/dc/dcmitype/StillImage" />
                        <dc:title />
                    </cc:Work>
                </rdf:RDF>
            </metadata>
            <g inkscape:label="Layer 1" inkscape:groupmode="layer" id="layer1" transform="translate(0,35)">
                <g inkscape:label="#g2532" id="Beak" transform="matrix(-0.48650927,0,0,0.54357171,657.69602,211.46484)"
                    style="fill:#ff6600;stroke:none" />
                <g id="g3834" transform="translate(9.8084247,-1.9616855)" />
                <g id="g3028" transform="matrix(1.8,0,0,1.8,-473.09629,-151.18724)" inkscape:export-xdpi="299"
                    inkscape:export-ydpi="299" style="filter:url(#filter3027)">
                    <path inkscape:transform-center-y="-15.14202" inkscape:transform-center-x="5.445955"
                        sodipodi:nodetypes="cccccc" inkscape:connector-curvature="0" id="path3014"
                        d="m 666.5219,236.93726 c 30.58056,8.88558 30.58056,8.88558 30.58056,8.88558 l -28.51656,8.37201 19.51099,8.17009 -20.54125,3.8411 z"
                        style="fill:#1a1a1a;stroke:#000000;stroke-width:1px;stroke-linecap:butt;stroke-linejoin:miter;stroke-opacity:1" />
                    <path sodipodi:nodetypes="caac" inkscape:connector-curvature="0" id="path3057-6"
                        d="m 379.68388,179.98204 c -4.10926,52.20936 58.43778,135.9163 120.24988,142.56291 24.153,2.59715 59.60196,-20.22121 57.75649,-44.44323 -5.14714,-67.55681 -109.42627,-70.95147 -178.00637,-98.11968 z"
                        style="fill:url(#linearGradient3044);fill-opacity:1;stroke-width:6;stroke-miterlimit:4;stroke-dasharray:none" />
                    <path sodipodi:nodetypes="casscc" inkscape:connector-curvature="0" id="path3055"
                        d="m 269.8605,373.20513 c 67.67888,75.43641 189.56586,109.43536 278.21136,72.92461 73.95409,-30.45975 121.90526,-128.7228 121.92914,-206.65506 0.0163,-53.37224 -53.43658,-114.07539 -132.56638,-89.05101 -35.54455,11.24078 -62.66397,46.94706 -85.57114,79.38053 -51.18227,68.1237 -96.56896,113.89003 -182.00298,143.40093 z"
                        style="fill:url(#linearGradient3046);fill-opacity:1;stroke:none" />
                    <path sodipodi:nodetypes="caac" inkscape:connector-curvature="0" id="path3057"
                        d="m 320.77195,220.77479 c 4.30612,52.1935 79.45291,124.80164 141.53158,121.46206 24.25715,-1.30495 55.59365,-29.50654 49.89239,-53.12026 -15.90119,-65.86021 -119.37777,-52.50874 -191.42397,-68.3418 z"
                        style="fill:url(#linearGradient3048);fill-opacity:1;stroke-width:6;stroke-miterlimit:4;stroke-dasharray:none" />
                    <path sodipodi:nodetypes="caccacc" inkscape:connector-curvature="0" id="path3038"
                        d="m 492.38893,179.67929 c 21.5139,1.92228 59.50427,8.73406 89.48249,10.59164 24.60459,1.5246 53.67692,0.86535 73.95403,0.44024 14.68607,25.17227 15.87493,52.00989 11.73019,75.49487 -43.2388,7.24087 -75.43377,1.90193 -110.71212,-9.3722 -32.09472,-10.25673 -63.92791,-25.71058 -86.99908,-51.46456 10.28822,-14.63721 13.78951,-17.79909 22.54449,-25.68999 z"
                        style="fill:#d40000;fill-opacity:1;stroke:none" />
                    <g transform="matrix(0.86579468,0.3649666,-0.26391158,0.69231919,85.48741,-162.41002)" id="g3044">
                        <g id="g3016" transform="matrix(2,0,0,2.2452831,-561.08547,-140.09006)">
                            <g id="g3024">
                                <path sodipodi:type="arc"
                                    style="fill:#ffffff;fill-opacity:1;fill-rule:nonzero;stroke:none" id="path3012"
                                    sodipodi:cx="625.77777" sodipodi:cy="191.69734" sodipodi:rx="11.770114"
                                    sodipodi:ry="11.279693"
                                    d="m 637.54788,191.69734 c 0,6.2296 -5.26965,11.27969 -11.77011,11.27969 -6.50045,0 -11.77011,-5.05009 -11.77011,-11.27969 0,-6.2296 5.26966,-11.27969 11.77011,-11.27969 6.50046,0 11.77011,5.05009 11.77011,11.27969 z"
                                    transform="matrix(1.25,0,0,1.1521739,-157.91571,-67.178996)" />
                                <path sodipodi:type="arc"
                                    style="fill:#1a1a1a;fill-opacity:1;fill-rule:nonzero;stroke:none" id="path3797"
                                    sodipodi:cx="616.45972" sodipodi:cy="234.36401" sodipodi:rx="10.29885"
                                    sodipodi:ry="9.8084288"
                                    d="m 626.75857,234.36401 c 0,5.41705 -4.61096,9.80843 -10.29885,9.80843 -5.6879,0 -10.29885,-4.39138 -10.29885,-9.80843 0,-5.41704 4.61095,-9.80843 10.29885,-9.80843 5.68789,0 10.29885,4.39139 10.29885,9.80843 z"
                                    transform="translate(11.279693,-81.080263)" />
                                <path sodipodi:type="arc"
                                    style="fill:#ffffff;fill-opacity:1;fill-rule:nonzero;stroke:none" id="path3801"
                                    sodipodi:cx="620.73676" sodipodi:cy="230.61153" sodipodi:rx="3.4678032"
                                    sodipodi:ry="3.4678032"
                                    d="m 624.20456,230.61153 c 0,1.91521 -1.55259,3.4678 -3.4678,3.4678 -1.91522,0 -3.46781,-1.55259 -3.46781,-3.4678 0,-1.91522 1.55259,-3.46781 3.46781,-3.46781 1.91521,0 3.4678,1.55259 3.4678,3.46781 z"
                                    transform="translate(9.8084286,-82.390801)" />
                            </g>
                        </g>
                    </g>
                    <path inkscape:connector-curvature="0" id="path3043"
                        d="m 650.5767,225.208 c -5.40955,-3.37349 -9.89511,-8.00238 -15.27944,-11.4174 -5.18488,-3.49807 -10.5331,-6.8719 -16.34727,-9.22002 -2.54854,-0.88107 -5.09894,-1.75716 -7.63552,-2.67231 -1.73429,0.41352 0.32979,-1.13719 0.69065,-1.71108 1.75547,-1.9591 3.51096,-3.9182 5.26644,-5.87729 2.2776,0.30009 4.2895,1.55461 6.5078,2.08759 6.00318,2.45851 11.42852,6.09054 16.85342,9.59769 5.33029,3.5972 10.30368,7.71968 15.67686,11.24008 1.59112,0.2977 1.50562,1.40438 0.27975,2.07547 -2.00424,1.96575 -4.00844,3.93156 -6.01269,5.89727 z"
                        style="fill:#1a1a1a;fill-opacity:1;fill-rule:nonzero;stroke:none" />
                    <path inkscape:connector-curvature="0" id="path3095"
                        d="m 496.84754,208.51754 c -10.36999,-0.36057 -22.4411,0.92855 -30.3887,-8.66162 -6.9977,-7.66674 -12.69186,-17.21086 -16.3641,-27.61311 -0.63688,-7.55618 -0.64379,-16.78667 -7.54473,-20.37677 -7.9648,-5.05478 -17.37554,-4.32732 -26.08455,-5.72658 -16.43477,-1.09317 -32.0931,5.75898 -47.41216,11.82065 -7.27266,2.85452 -16.21291,2.3303 -21.54489,-4.95415 -4.15354,-4.76447 -6.67789,-10.93486 -9.29982,-16.84153 -3.83989,-3.82367 -4.0705,-9.7639 1.11305,-11.34888 3.19135,-2.16378 6.38271,-4.32755 9.57406,-6.49132 4.90308,10.61164 8.63358,24.24694 18.97309,28.97523 10.6148,2.68723 20.45991,-4.52723 30.46652,-7.44993 14.18591,-5.3972 29.34541,-6.20962 43.99668,-3.34773 8.43616,0.88663 18.64523,4.54479 21.19572,15.42017 0.74601,9.43048 2.44593,18.61605 8.08503,25.69791 5.33569,9.58312 13.16015,18.71783 23.43171,19.11175 3.39992,1.33374 14.52609,-1.39066 13.30116,1.87853 -3.83269,3.30246 -7.66538,6.60492 -11.49807,9.90738 z"
                        style="fill:#d40000;fill-opacity:1;fill-rule:nonzero;stroke:none" />
                    <path inkscape:connector-curvature="0" id="path3097"
                        d="m 489.90021,203.54282 c -7.51971,-4.90359 -16.71844,-9.22969 -19.91648,-18.2563 -2.11832,-6.04415 -4.29431,-12.1555 -5.35477,-18.47912 -0.92927,-8.59368 0.0256,-17.25397 -0.40295,-25.86708 1.38582,-5.49621 -2.17858,-10.55272 -7.68348,-11.56743 -7.21507,-2.10321 -14.84704,-1.82663 -22.24465,-2.84536 -6.80007,-0.37061 -14.91553,1.10883 -20.30903,-4.00571 -4.09066,-4.87853 -5.86768,-11.19245 -7.89479,-17.10313 -0.46476,-3.08726 3.63491,-3.21074 5.41702,-5.03626 3.25192,-2.063298 6.50383,-4.126592 9.75575,-6.189886 0.70572,5.751024 3.22801,11.118916 5.4821,16.390986 3.11114,5.53909 9.92565,5.80339 15.54728,5.66422 8.8151,0.56086 17.76836,0.73464 26.40085,2.69296 5.44138,1.2713 11.85407,5.1236 11.28172,11.45835 0.36689,13.12466 -1.80668,26.73482 2.70554,39.39058 1.86469,5.66123 3.69455,11.77212 8.70159,15.53075 3.75441,3.4807 8.47581,5.76731 12.65971,8.54496 -3.4282,2.99846 -7.80274,5.25732 -11.59256,7.98713 -0.85097,0.56342 -1.70193,1.12686 -2.55285,1.69034 z"
                        style="fill:#d40000;fill-opacity:1;fill-rule:nonzero;stroke:none" />
                </g>
            </g>
        </g>
    </svg>

    <svg viewBox="0 0 769.985528 659.983748856" xmlns="http://www.w3.org/2000/svg"
        xmlns:xlink="http://www.w3.org/1999/xlink">
        <g id="MybatisPlus">
            <defs>
                <linearGradient id="linearGradient_C5EEEB26" x1="1" y1="0.5" x2="0" y2="0.5"
                    gradientUnits="objectBoundingBox" xlink:href="#linearStops_C5EEEB26" />
                <linearGradient id="linearStops_C5EEEB26">
                    <stop id="stop_C5EEEB26_0" offset="0" style="stop-color:#6D5656;stop-opacity:1;" />
                    <stop id="stop_C5EEEB26_1" offset="1" style="stop-color:#000000;stop-opacity:1;" />
                </linearGradient>
                <linearGradient id="linearGradient_F6EEEB26" x1="0.080617193692" y1="0.772246325546" x2="0.919382806308"
                    y2="0.227753674454" gradientUnits="objectBoundingBox" xlink:href="#linearStops_F6EEEB26" />
                <linearGradient id="linearStops_F6EEEB26">
                    <stop id="stop_F6EEEB26_0" offset="0" style="stop-color:#000000;stop-opacity:1;" />
                    <stop id="stop_F6EEEB26_1" offset="1" style="stop-color:#6D5656;stop-opacity:1;" />
                </linearGradient>
                <linearGradient id="linearGradient_77EEEB26" x1="0.03424954901" y1="0.681869506521" x2="0.96575045099"
                    y2="0.318130493479" gradientUnits="objectBoundingBox" xlink:href="#linearStops_F6EEEB26" />
            </defs>
            <g id="layer_Paper"
                style="fill:#000000;fill-opacity:1;stroke:#000000;stroke-opacity:1;fill-rule:nonzero;stroke-linecap:square;stroke-linejoin:miter;stroke-width:1;stroke-miterlimit:10"
                transform="matrix(1, 0, 0, 1, 1.4210854715202004e-14, 0)">
                <g id="21EEEB26">
                    <path style="fill:#1A1A1A;stroke-linecap:butt;stroke-width:1.8;stroke-miterlimit:4" id="02EEEB26"
                        d="M713.99052,256.9404888 C769.035528,272.9345328 769.035528,272.9345328 769.035528,272.9345328 L717.70572,288.0041508 L752.825502,302.7103128 L715.851252,309.6242928 z" />
                    <path style="fill:url(#linearGradient_C5EEEB26);stroke:none" id="C5EEEB26"
                        d="M197.682084,154.4210928 C190.285416,248.3979408 302.870088,399.0704328 414.131868,411.0343308 C457.607268,415.7092008 521.415396,374.6361528 518.09355,331.0365168 C508.828698,209.4342588 321.126264,203.3238708 197.682084,154.4210928 z" />
                    <path style="fill:url(#linearGradient_F6EEEB26);stroke:none" id="F6EEEB26"
                        d="M0,502.2226548 C121.821984,638.0081928 341.218548,699.2063028 500.780448,633.4869528 C633.89781,578.6594028 720.209916,401.7859128 720.2529,261.5078448 C720.28224,165.4378128 624.067056,56.1721428 481.633416,101.2160268 C417.653226,121.4494308 368.83827,185.7207348 327.605364,244.1009808 C235.477278,366.7236408 153.781236,449.1030348 0,502.2226548 z" />
                    <path style="fill:url(#linearGradient_77EEEB26);stroke:none" id="77EEEB26"
                        d="M91.64061,227.8480428 C99.391626,321.7963428 234.655848,452.4909948 346.397454,446.4797508 C390.060324,444.1308408 446.466024,393.3679788 436.203756,350.8632828 C407.581614,232.3149048 221.32377,256.3475508 91.64061,227.8480428 z" />
                    <path style="fill:#1E90FF;stroke:none" id="08EEEB26"
                        d="M400.551174,153.8761428 C439.276194,157.3362468 507.65886,169.5974508 561.619656,172.9410948 C605.907918,175.6853748 658.238112,174.4987248 694.73691,173.7335268 C721.171836,219.0436128 723.311784,267.3513288 715.851252,309.6242928 C638.021412,322.6578588 580.070466,313.0477668 516.569436,292.7543328 C458.79894,274.2922188 401.499198,246.4752888 359.971092,200.1181248 C378.489888,173.7711468 384.79221,168.0797628 400.551174,153.8761428 z" />
                    <g id="28EEEB26">
                        <g id="48EEEB26">
                            <g id="78EEEB26">
                                <path style="fill:#FFFFFF;stroke:none" id="D8EEEB26"
                                    d="M688.07242058,264.559574262 C680.416802595,284.642555245 653.679739081,292.268424455 628.353452497,281.592395924 C603.027204872,270.916383817 588.702315006,245.98128199 596.357932991,225.898301007 C604.013550976,205.815320024 630.75065345,198.189467237 656.076901074,208.865479344 C681.403187659,219.541507875 695.728038565,244.476593279 688.07242058,264.559574262 z" />
                                <path style="fill:#1A1A1A;stroke:none" id="29EEEB26"
                                    d="M685.448127649,262.135024967 C679.670295733,277.292010166 660.614723953,283.520908673 642.886362304,276.047705124 C625.157969487,268.574488438 615.470131044,250.229109034 621.24796296,235.072123834 C627.02578421,219.915166615 646.081335488,213.68622699 663.809728305,221.159443677 C681.538089954,228.632647225 691.225948899,246.978067748 685.448127649,262.135024967 z" />
                                <path style="fill:#FFFFFF;stroke:none" id="89EEEB26"
                                    d="M678.302128437,242.679899924 C676.259363193,248.03868554 669.764161885,250.342938512 663.79471882,247.826582857 C657.825244587,245.310214063 654.642031927,238.926127938 656.684797171,233.567342322 C658.72757308,228.208528725 665.222774389,225.904275754 671.192248622,228.420644548 C677.161691687,230.937000203 680.344904346,237.321086327 678.302128437,242.679899924 z" />
                            </g>
                        </g>
                    </g>
                    <path style="fill:#1A1A1A;stroke:none" id="4AEEEB26"
                        d="M685.28916,235.8278208 C675.55197,229.7555388 667.477962,221.4235368 657.786168,215.2765008 C648.453384,208.9799748 638.826588,202.9070808 628.361082,198.6804648 C623.77371,197.0945388 619.18299,195.5175768 614.617146,193.8703068 C611.495424,194.6146428 615.210768,191.8233648 615.860316,190.7903628 C619.020162,187.2639828 622.180044,183.7376028 625.339908,180.2112408 C629.439588,180.7514028 633.061008,183.0095388 637.053948,183.9689028 C647.859672,188.3942208 657.625284,194.9318748 667.390104,201.2447448 C676.984626,207.7197048 685.936728,215.1401688 695.608452,221.4768888 C698.472468,222.0127488 698.318568,224.0047728 696.112002,225.2127348 C692.50437,228.7510848 688.89681,232.2895428 685.28916,235.8278208 z" />
                    <path style="fill:#1E90FF;stroke:none" id="9AEEEB26"
                        d="M408.576672,205.7849928 C389.91069,205.1359668 368.182692,207.4563828 353.877012,190.1940768 C341.281152,176.3939448 331.031664,159.2145288 324.421632,140.4904788 C323.275248,126.8893548 323.26281,110.2744728 310.841118,103.8122928 C296.504478,94.7136887999 279.565146,96.0231168 263.888928,93.5044488 C234.306342,91.5367428001 206.121348,103.8706128 178.54704,114.7816188 C165.456252,119.9197548 149.363802,118.9761588 139.766238,105.8641488 C132.289866,97.2881028 127.746036,86.1814007999 123.026562,75.5493948 C116.11476,68.6667888 115.699662,57.9743747999 125.030052,55.1214108 C130.774482,51.2266067999 136.51893,47.3318208001 142.26336,43.4370348 C151.088904,62.5379868 157.803804,87.0815268001 176.414922,95.5924488 C195.521562,100.4294628 213.24276,87.4434348001 231.254658,82.1825748001 C256.789296,72.4676148 284.076396,71.0052588 310.448682,76.1566608 C325.63377,77.7525948001 344.010096,84.3372828 348.600978,103.9129668 C349.943796,120.8878308 353.003652,137.4218568 363.154032,150.1692048 C372.758274,167.4188208 386.842302,183.8612988 405.33111,184.5703548 C411.450966,186.9710868 431.478072,182.0671668 429.273198,187.9517088 C422.374356,193.8961368 415.475514,199.8405648 408.576672,205.7849928 z" />
                    <path style="fill:#1E90FF;stroke:none" id="DAEEEB26"
                        d="M396.071478,196.8304968 C382.536,188.0040348 365.978286,180.2170548 360.221814,163.9691568 C356.408838,153.0896868 352.492056,142.0892568 350.583228,130.7067408 C348.910542,115.2381168 350.629308,99.6495948001 349.857918,84.1459968 C352.352394,74.2528187999 345.936474,65.1511008001 336.027654,63.3246228 C323.040528,59.5388448 309.302982,60.0366888001 295.987284,58.2029748 C283.747158,57.5358767999 269.13933,60.1988688 259.43103,50.9926968 C252.067842,42.2113428001 248.869206,30.8462868 245.220408,20.2070627999 C244.38384,14.6499948 251.763246,14.4277308 254.971044,11.1417948001 C260.8245,7.427858400091 266.677938,3.713929199947 272.531394,0 C273.80169,10.3518432 278.341812,20.0140488 282.399174,29.5037747999 C287.999226,39.4741368001 300.265344,39.9498768 310.384278,39.6993708001 C326.251458,40.7089188 342.367326,41.0217228 357.905808,44.5466988 C367.700292,46.8350388001 379.243134,53.7691787999 378.212904,65.1717288001 C378.873306,88.7961167999 374.96088,113.2944048 383.082876,136.0747728 C386.439318,146.2649868 389.733066,157.2645888 398.745738,164.0301228 C405.503676,170.2953828 414.002196,174.4112808 421.533216,179.4110508 C415.362456,184.8082788 407.488284,188.8742268 400.666608,193.7878848 C399.134862,194.8020408 397.603134,195.8162328 396.071478,196.8304968 z" />
                </g>
                <polygon style="fill:#FFFFFF;stroke:#FFFFFF" id="507C0036"
                    points="565.615106535,230.105227729 544.484479673,237.321057559 537.268649843,258.451684422 530.052820012,237.321057559 508.92219315,230.105227729 530.052820012,222.889397899 537.268649843,201.758771036 544.484479673,222.889397899" />
            </g>
        </g>
    </svg>

    <svg viewBox="0 0 163 163">
        <g id="MybatisMapper" clip-path="url(#clip0)">
            <path
                d="M68.3597 149.128H85.6543L77.0907 131.725C76.4317 130.384 76.9837 128.763 78.3244 128.103C79.6662 127.441 81.2857 127.996 81.946 129.337L91.685 149.128H106.231C107.725 149.128 108.937 150.34 108.937 151.834C108.937 153.327 107.725 154.539 106.231 154.539H68.3597C66.866 154.539 65.6546 153.327 65.6546 151.834C65.6546 150.34 66.8657 149.128 68.3597 149.128Z"
                fill="#EBAF4B" />
            <path
                d="M68.3597 149.128H74.8336L66.27 131.725C65.611 130.384 66.163 128.763 67.5037 128.103C68.8497 127.441 70.465 127.996 71.1253 129.337L80.8642 149.128H95.4107C96.9045 149.128 98.1158 150.34 98.1158 151.834C98.1158 153.327 96.9045 154.539 95.4107 154.539H68.3594C66.8657 154.539 65.6543 153.327 65.6543 151.834C65.6546 150.34 66.8657 149.128 68.3597 149.128Z"
                fill="#FFC850" />
            <path d="M161.913 53.5971L148.914 57L147 50L161.247 51.9819C163.254 52.2611 163.621 53.1502 161.913 53.5971Z"
                fill="#FFC850" />
            <path d="M160.913 60.5971L147.914 64L146 57L160.247 58.9819C162.254 59.2611 162.621 60.1502 160.913 60.5971Z"
                fill="#EBAF4B" />
            <path
                d="M27.022 85.3891C49.1983 83.3038 65.2035 55.8017 74.7842 39.233C81.1899 28.1551 89.7751 21.3116 102.485 18.8316L94.5091 8.46231C94.5091 8.46231 144.103 7.56039 151.865 59.8595C157.064 105.847 119.747 135.603 76.475 135.603C41.3673 135.603 10.9229 114.691 0.192928 85.7886C-0.71758 83.336 1.75862 81.0018 4.17529 82.004C9.25025 84.108 17.201 86.3126 27.022 85.3891Z"
                fill="#00C3FF" />
            <path
                d="M55.5104 131.545C98.7828 131.545 136.099 101.789 130.9 55.8017C126.549 26.4872 109.058 13.8913 94.5215 8.47854L94.5091 8.46231C94.5091 8.46231 144.103 7.56039 151.865 59.8595C157.064 105.847 119.747 135.603 76.475 135.603C67.0172 135.603 57.8984 134.084 49.4116 131.301C51.4294 131.442 53.4577 131.545 55.5104 131.545Z"
                fill="#00AAF0" />
            <path
                d="M67.6628 49.5339C72.1501 43.6843 80.1715 41.8748 86.6488 45.3952L86.7392 45.4445C123.345 65.3757 84.0141 134.07 23.7439 81.146C21.5074 79.182 22.892 75.4805 25.8683 75.4798C35.4831 75.4782 51.0196 71.2294 67.6628 49.5339Z"
                fill="#00AAF0" />
            <path
                d="M32.0072 74.9103C50.9566 92.711 97.7714 102.973 100.657 65.277C103.771 90.8859 69.8783 121.701 23.6949 81.1024C21.4533 79.132 22.9079 75.4741 25.8922 75.4706C27.7269 75.4687 29.7765 75.312 32.0072 74.9103Z"
                fill="#0096DC" />
            <path
                d="M83.8214 43.1094C79.7869 42.9691 75.0907 43.4706 71.9987 39.7396C69.2762 36.7568 67.0609 33.0437 65.6322 28.9967C65.3845 26.057 65.3818 22.4659 62.697 21.0692C59.5983 19.1026 55.937 19.3856 52.5488 18.8413C46.1549 18.416 40.0631 21.0818 34.1032 23.4401C31.2738 24.5506 27.7956 24.3467 25.7212 21.5127C24.1053 19.659 23.1232 17.2585 22.1031 14.9605C20.6092 13.4729 20.5195 11.1619 22.5361 10.5452C23.7777 9.7034 25.0193 8.86159 26.2609 8.01978C28.1684 12.1482 29.6198 17.453 33.6424 19.2925C37.772 20.338 41.6023 17.5312 45.4953 16.3942C51.0143 14.2944 56.9121 13.9783 62.6122 15.0917C65.8942 15.4367 69.8661 16.8599 70.8583 21.0909C71.1486 24.7598 71.8099 28.3335 74.0038 31.0887C76.0796 34.817 79.1237 38.3708 83.1199 38.5241C84.4426 39.043 88.7712 37.983 88.2947 39.2549C86.8036 40.5397 85.3125 41.8245 83.8214 43.1094V43.1094Z"
                fill="#B60202" />
            <path
                d="M80.5091 30.0508C88.879 30.7987 103.659 33.4488 115.322 34.1715C124.894 34.7646 135.111 34.3369 143 34.1715C148.714 43.9647 152 54 152 63.5C135.178 66.317 119.31 64.4539 105.585 60.0677C93.0986 56.0773 82.4758 51.5195 73.5 41.5C77.5026 35.8054 77.103 33.1208 80.5091 30.0508Z"
                fill="#D40000" />
            <path
                d="M79.6555 36.5426C76.73 34.6348 73.1513 32.9518 71.9071 29.44C71.0829 27.0885 70.2364 24.7109 69.8238 22.2507C69.4623 18.9073 69.8338 15.5381 69.667 12.1872C70.2062 10.0489 68.8195 8.08163 66.6778 7.68686C63.8708 6.86861 60.9016 6.97621 58.0236 6.57987C55.378 6.43569 52.2207 7.01126 50.1224 5.02146C48.5309 3.12348 47.8395 0.667057 47.0509 -1.63248C46.8701 -2.83358 48.4651 -2.88162 49.1584 -3.59183C50.4235 -4.39456 51.6887 -5.19728 52.9538 -6C53.2284 -3.76257 54.2097 -1.6742 55.0866 0.376886C56.297 2.53186 58.9482 2.63469 61.1353 2.58054C64.5648 2.79875 68.048 2.86635 71.4065 3.62824C73.5235 4.12283 76.0183 5.62157 75.7956 8.08609C75.9384 13.1922 75.0927 18.4872 76.8482 23.4109C77.5737 25.6134 78.2856 27.9909 80.2336 29.4531C81.6942 30.8073 83.5311 31.6969 85.1588 32.7776C83.8251 33.9441 82.1232 34.8229 80.6487 35.8849C80.3177 36.1041 79.9866 36.3233 79.6555 36.5426V36.5426Z"
                fill="#D40000" />
            <path
                d="M127.872 59.8595C132.354 59.8595 135.988 56.2261 135.988 51.7442V49.0391C135.988 44.5573 132.354 40.9238 127.872 40.9238C123.39 40.9238 119.757 44.5573 119.757 49.0391V51.7442C119.757 56.2261 123.39 59.8595 127.872 59.8595Z"
                fill="#4B3F4E" />
            <path
                d="M127.872 40.9238V50.3918C127.872 52.6328 126.056 54.4496 123.814 54.4496C121.573 54.4496 119.757 52.6331 119.757 50.3918V49.0391C119.757 44.5569 123.39 40.9238 127.872 40.9238Z"
                fill="#5D5360" />
            <path
                d="M127.872 49.0391C126.378 49.0391 125.167 47.828 125.167 46.334C125.167 44.84 126.378 43.6289 127.872 43.6289C129.366 43.6289 130.577 44.84 130.577 46.334C130.577 47.828 129.366 49.0391 127.872 49.0391Z"
                fill="white" />
            <defs>
                <clipPath id="clip0">
                    <rect width="163" height="163" fill="white" transform="matrix(-1 0 0 1 163 0)" />
                </clipPath>
            </defs>
        </g>
    </svg>

</svg>